<?xml version="1.0" encoding="UTF-8"?>
<svg id="Layer_2" data-name="Layer 2" xmlns="http://www.w3.org/2000/svg" viewBox="0 0 300 300">
  <defs>
    <style>
      .cls-1 {
        fill: #fff;
      }
    </style>
  </defs>
  <g id="Layer_1-2" data-name="Layer 1">
    <path class="cls-1" d="M230.6,175.9h69.4v-51.8h-126.39c1.08-1.38,2.25-2.7,3.51-3.97,13.03-13.03,32.32-15.96,48.18-8.81l49.08-49.08-36.62-36.63-89.37,89.37c-.21-1.73-.32-3.5-.32-5.29,0-18.42,11.57-34.15,27.83-40.3V0h-51.8v126.38c-1.38-1.08-2.7-2.25-3.97-3.51-13.03-13.03-15.97-32.32-8.81-48.18L62.25,25.62,25.62,62.25l89.37,89.37c-1.73.21-3.5.32-5.29.32-18.42,0-34.14-11.57-40.3-27.83H0v51.8h126.39c-1.08,1.38-2.25,2.7-3.51,3.97-13.03,13.03-32.32,15.96-48.18,8.81l-49.08,49.08,36.62,36.63,89.37-89.37c.21,1.73.32,3.5.32,5.29,0,18.42-11.57,34.14-27.83,40.3v69.4h51.8v-126.38c1.38,1.07,2.7,2.24,3.97,3.51,13.03,13.03,15.97,32.32,8.81,48.18l49.08,49.08,36.62-36.63-89.37-89.37c1.73-.21,3.5-.32,5.29-.32,18.42,0,34.14,11.57,40.3,27.83Z"/>
  </g>
</svg>