<?xml version="1.0" encoding="UTF-8"?>
<svg id="Layer_2" data-name="Layer 2" xmlns="http://www.w3.org/2000/svg" viewBox="0 0 662.58 121.54">
  <defs>
    <style>
      .cls-1 {
        fill: #fff;
      }
    </style>
  </defs>
  <g id="Layer_2-2" data-name="Layer 2">
    <g>
      <path class="cls-1" d="M103.21,36.49c0,15.59-9.32,25.4-23.95,30.71l14.79,22.02c10.93,16.4,19.61,18.01,19.61,24.28,0,3.05-2.73,5.47-6.59,5.47h-25.88c-4.5,0-8.68-.8-8.68-5.47,0-6.43-2.25-10.45-11.58-24.28l-11.41-16.88h-11.9v16.72c0,20.26,6.43,18.01,6.43,24.28,0,3.05-2.57,5.63-6.43,5.63H6.43c-3.86,0-6.43-2.57-6.43-5.63,0-6.27,6.43-4.02,6.43-24.28V31.35C6.43,11.09,0,13.34,0,7.07,0,4.02,2.57,1.45,6.43,1.45h38.1c32.8,0,58.68,10.13,58.68,35.05ZM44.53,62.06c16.88,0,25.56-8.84,25.56-25.08s-8.68-25.08-25.56-25.08h-6.91v50.16h6.91Z"/>
      <path class="cls-1" d="M157.07,36.01c24.76,0,44.85,19.13,44.85,42.76s-20.1,42.76-44.85,42.76-45.01-19.13-45.01-42.76,20.1-42.76,45.01-42.76ZM141.64,82.96c4.98,18.65,15.92,31.83,24.44,29.58,8.52-2.25,11.41-19.29,6.43-37.94s-15.92-31.83-24.6-29.58c-8.52,2.25-11.25,19.29-6.27,37.94Z"/>
      <path class="cls-1" d="M245.5,115.11c0,2.09-1.77,3.86-4.18,3.86h-27.81c-2.57,0-4.34-1.77-4.34-3.86,0-4.34,4.34-2.73,4.34-16.88V30.22c0-14.31-4.34-12.7-4.34-17.04,0-2.25,1.77-3.86,4.34-3.86,10.77,0,14.31-9.32,22.67-9.32,2.73,0,4.98,2.25,4.98,4.98v93.24c0,14.15,4.34,12.54,4.34,16.88Z"/>
      <path class="cls-1" d="M297.75,36.01c24.76,0,44.85,19.13,44.85,42.76s-20.1,42.76-44.85,42.76-45.01-19.13-45.01-42.76,20.1-42.76,45.01-42.76ZM282.32,82.96c4.98,18.65,15.92,31.83,24.44,29.58,8.52-2.25,11.41-19.29,6.43-37.94s-15.92-31.83-24.6-29.58c-8.52,2.25-11.25,19.29-6.27,37.94Z"/>
      <path class="cls-1" d="M395.5,36.01c5.47,0,9.49,1.77,12.54,3.86v-9.81c0-14.15-4.34-12.54-4.34-16.88,0-2.25,1.77-3.86,4.18-3.86,10.93,0,14.31-9.32,22.83-9.32,2.73,0,4.98,2.25,4.98,4.98v93.24c0,14.15,4.34,12.54,4.34,16.88,0,2.09-1.77,3.86-4.34,3.86h-24.28c-1.93,0-3.38-1.61-3.38-3.38v-1.13c-2.89,3.54-8.68,7.07-16.08,7.07-20.74,0-41.32-17.04-41.32-42.92s20.1-42.6,44.85-42.6ZM395.34,43.89c-9.81,0-16.08,13.83-16.08,34.73s6.27,35.21,17.2,35.21c5.95,0,11.58-4.98,11.58-15.92v-40.19c0-9-5.63-13.83-12.7-13.83Z"/>
      <path class="cls-1" d="M486.98,36.01c17.85,0,35.53,11.25,39.23,25.24,7.39,27.97-58.52,13.34-44.21,34.73,4.82,7.23,12.22,11.74,22.67,10.93,13.02-1.12,18.65-8.36,19.77-9.65,2.09-2.25,4.34-.96,4.98-.32,1.45,1.45,1.29,3.22.8,4.18-5.14,9.65-19.13,20.42-38.1,20.42-24.76,0-44.85-19.13-44.85-42.76s15.92-42.76,39.71-42.76ZM476.53,83.92c2.89-4.66,8.84-6.75,15.92-9.49,15.92-6.27,7.07-30.71-5.47-30.71-11.74,0-15.11,24.44-10.45,40.19Z"/>
      <path class="cls-1" d="M618.49,115.11c0,1.93-1.77,3.86-3.86,3.86h-26.37c-1.45,0-8.68.48-8.68-3.86s2.89-5.95-5.47-16.88l-6.75-8.68-8.36,9.81c-9,10.61-9.97,12.06-9.97,16.08,0,3.05-4.18,3.54-6.43,3.54h-10.45c-2.57,0-4.82-.8-4.82-3.54,0-5.14,8.68-1.12,22.19-17.2l12.86-15.11-21.7-28.78c-6.91-8.52-10.13-7.88-10.13-11.9,0-1.93,1.77-3.86,3.86-3.86h26.53c1.29,0,8.52-.48,8.52,3.86s-2.89,5.95,5.47,16.72l4.82,6.59,7.72-9c7.07-8.68,7.4-10.93,7.4-14.79,0-2.89,4.18-3.38,6.43-3.38h8.84c2.25.16,4.34.96,4.34,3.38,0,5.31-5.31,1.45-18.81,17.36l-10.93,13.02,20.1,26.04c10.13,13.34,13.67,11.9,13.67,16.72Z"/>
      <path class="cls-1" d="M638.81,7.21l.81,2.94c.15.44-.15.81-.51.95-.37.07-.81-.07-.88-.44-.51-1.32-1.17-2.57-3.16-2.57h-1.83v11.15c0,2.94.88,2.57.88,3.52,0,.44-.37.81-.88.81h-4.55c-.59,0-.88-.37-.88-.81,0-.95.88-.59.88-3.52v-11.15h-1.91c-1.98,0-2.57,1.25-3.16,2.57-.07.37-.51.51-.88.44-.29-.15-.66-.51-.51-.95l.81-2.94c.07-.29.44-.59.73-.59h14.38c.22,0,.59.29.66.59ZM641.45,19.24v-8.29c0-2.94-.88-2.57-.88-3.52,0-.44.37-.81.88-.81h3.74c.51,0,.95.29,1.1.73l5.5,10.93s4.92-10.71,4.99-10.79c.22-.59.73-.88,1.32-.88h3.52c.59,0,.95.37.95.81,0,.95-.95.59-.95,3.52v8.29c0,2.94.95,2.57.95,3.52,0,.44-.37.81-.95.81h-4.48c-.59,0-.88-.37-.88-.81,0-.95.88-.59.88-3.52v-9.03l-5.72,12.55c-.29.51-.73.81-1.25.81s-.95-.29-1.25-.81l-5.94-12.11v8.59c0,2.94.95,2.64.95,3.52,0,.44-.44.81-.95.81h-1.54c-.51,0-.88-.37-.88-.81,0-.88.88-.59.88-3.52Z"/>
    </g>
  </g>
</svg>